<mxfile host="Electron" agent="Mozilla/5.0 (Macintosh; Intel Mac OS X 10_15_7) AppleWebKit/537.36 (KHTML, like Gecko) draw.io/24.7.5 Chrome/126.0.6478.183 Electron/31.3.0 Safari/537.36" version="24.7.5">
  <diagram name="Página-1" id="436kbG_qg5FWNXyyikc6">
    <mxGraphModel dx="1621" dy="534" grid="1" gridSize="10" guides="1" tooltips="1" connect="1" arrows="1" fold="1" page="1" pageScale="1" pageWidth="827" pageHeight="1169" math="0" shadow="0">
      <root>
        <mxCell id="0" />
        <mxCell id="1" parent="0" />
        <mxCell id="HoNlZnx-3GMSGM9q2nx6-6" style="edgeStyle=orthogonalEdgeStyle;rounded=0;orthogonalLoop=1;jettySize=auto;html=1;exitX=1;exitY=0.5;exitDx=0;exitDy=0;entryX=0;entryY=0.5;entryDx=0;entryDy=0;endArrow=none;endFill=0;" edge="1" parent="1" source="HoNlZnx-3GMSGM9q2nx6-1" target="HoNlZnx-3GMSGM9q2nx6-4">
          <mxGeometry relative="1" as="geometry" />
        </mxCell>
        <mxCell id="HoNlZnx-3GMSGM9q2nx6-8" style="edgeStyle=orthogonalEdgeStyle;rounded=0;orthogonalLoop=1;jettySize=auto;html=1;exitX=0.5;exitY=1;exitDx=0;exitDy=0;entryX=0.5;entryY=0;entryDx=0;entryDy=0;endArrow=none;endFill=0;" edge="1" parent="1" source="HoNlZnx-3GMSGM9q2nx6-1" target="HoNlZnx-3GMSGM9q2nx6-5">
          <mxGeometry relative="1" as="geometry" />
        </mxCell>
        <mxCell id="HoNlZnx-3GMSGM9q2nx6-1" value="CURSO" style="whiteSpace=wrap;html=1;align=center;" vertex="1" parent="1">
          <mxGeometry x="100" y="120" width="100" height="40" as="geometry" />
        </mxCell>
        <mxCell id="HoNlZnx-3GMSGM9q2nx6-2" value="INSTRUCTOR" style="whiteSpace=wrap;html=1;align=center;" vertex="1" parent="1">
          <mxGeometry x="414" y="120" width="100" height="40" as="geometry" />
        </mxCell>
        <mxCell id="HoNlZnx-3GMSGM9q2nx6-3" value="ALUMNO" style="whiteSpace=wrap;html=1;align=center;" vertex="1" parent="1">
          <mxGeometry x="100" y="380" width="100" height="40" as="geometry" />
        </mxCell>
        <mxCell id="HoNlZnx-3GMSGM9q2nx6-7" style="edgeStyle=orthogonalEdgeStyle;rounded=0;orthogonalLoop=1;jettySize=auto;html=1;exitX=1;exitY=0.5;exitDx=0;exitDy=0;entryX=0;entryY=0.5;entryDx=0;entryDy=0;endArrow=none;endFill=0;" edge="1" parent="1" source="HoNlZnx-3GMSGM9q2nx6-4" target="HoNlZnx-3GMSGM9q2nx6-2">
          <mxGeometry relative="1" as="geometry" />
        </mxCell>
        <mxCell id="HoNlZnx-3GMSGM9q2nx6-4" value="Dictado por" style="shape=rhombus;perimeter=rhombusPerimeter;whiteSpace=wrap;html=1;align=center;" vertex="1" parent="1">
          <mxGeometry x="260" y="120" width="80" height="40" as="geometry" />
        </mxCell>
        <mxCell id="HoNlZnx-3GMSGM9q2nx6-9" style="edgeStyle=orthogonalEdgeStyle;rounded=0;orthogonalLoop=1;jettySize=auto;html=1;exitX=0.5;exitY=1;exitDx=0;exitDy=0;entryX=0.5;entryY=0;entryDx=0;entryDy=0;endArrow=none;endFill=0;" edge="1" parent="1" source="HoNlZnx-3GMSGM9q2nx6-5" target="HoNlZnx-3GMSGM9q2nx6-3">
          <mxGeometry relative="1" as="geometry" />
        </mxCell>
        <mxCell id="HoNlZnx-3GMSGM9q2nx6-5" value="Tomado por" style="shape=rhombus;perimeter=rhombusPerimeter;whiteSpace=wrap;html=1;align=center;" vertex="1" parent="1">
          <mxGeometry x="110" y="250" width="80" height="40" as="geometry" />
        </mxCell>
        <mxCell id="HoNlZnx-3GMSGM9q2nx6-14" style="edgeStyle=orthogonalEdgeStyle;rounded=0;orthogonalLoop=1;jettySize=auto;html=1;exitX=0.5;exitY=1;exitDx=0;exitDy=0;entryX=0.5;entryY=0;entryDx=0;entryDy=0;endArrow=none;endFill=0;" edge="1" parent="1" source="HoNlZnx-3GMSGM9q2nx6-10" target="HoNlZnx-3GMSGM9q2nx6-1">
          <mxGeometry relative="1" as="geometry" />
        </mxCell>
        <mxCell id="HoNlZnx-3GMSGM9q2nx6-10" value="código" style="ellipse;whiteSpace=wrap;html=1;align=center;fontStyle=4;" vertex="1" parent="1">
          <mxGeometry x="100" y="40" width="80" height="40" as="geometry" />
        </mxCell>
        <mxCell id="HoNlZnx-3GMSGM9q2nx6-17" style="edgeStyle=orthogonalEdgeStyle;rounded=0;orthogonalLoop=1;jettySize=auto;html=1;exitX=1;exitY=0.5;exitDx=0;exitDy=0;entryX=0.25;entryY=1;entryDx=0;entryDy=0;endArrow=none;endFill=0;" edge="1" parent="1" source="HoNlZnx-3GMSGM9q2nx6-11" target="HoNlZnx-3GMSGM9q2nx6-1">
          <mxGeometry relative="1" as="geometry" />
        </mxCell>
        <mxCell id="HoNlZnx-3GMSGM9q2nx6-11" value="nombre" style="ellipse;whiteSpace=wrap;html=1;align=center;" vertex="1" parent="1">
          <mxGeometry x="-10" y="170" width="80" height="40" as="geometry" />
        </mxCell>
        <mxCell id="HoNlZnx-3GMSGM9q2nx6-16" style="edgeStyle=orthogonalEdgeStyle;rounded=0;orthogonalLoop=1;jettySize=auto;html=1;exitX=1;exitY=0.5;exitDx=0;exitDy=0;entryX=0;entryY=0.5;entryDx=0;entryDy=0;endArrow=none;endFill=0;" edge="1" parent="1" source="HoNlZnx-3GMSGM9q2nx6-12" target="HoNlZnx-3GMSGM9q2nx6-1">
          <mxGeometry relative="1" as="geometry" />
        </mxCell>
        <mxCell id="HoNlZnx-3GMSGM9q2nx6-12" value="cuota" style="ellipse;whiteSpace=wrap;html=1;align=center;" vertex="1" parent="1">
          <mxGeometry x="-10" y="100" width="70" height="40" as="geometry" />
        </mxCell>
        <mxCell id="HoNlZnx-3GMSGM9q2nx6-15" style="edgeStyle=orthogonalEdgeStyle;rounded=0;orthogonalLoop=1;jettySize=auto;html=1;exitX=1;exitY=1;exitDx=0;exitDy=0;entryX=0;entryY=0;entryDx=0;entryDy=0;endArrow=none;endFill=0;" edge="1" parent="1" source="HoNlZnx-3GMSGM9q2nx6-13" target="HoNlZnx-3GMSGM9q2nx6-1">
          <mxGeometry relative="1" as="geometry" />
        </mxCell>
        <mxCell id="HoNlZnx-3GMSGM9q2nx6-13" value="duracion" style="ellipse;whiteSpace=wrap;html=1;align=center;" vertex="1" parent="1">
          <mxGeometry x="-10" y="40" width="80" height="40" as="geometry" />
        </mxCell>
        <mxCell id="HoNlZnx-3GMSGM9q2nx6-22" style="edgeStyle=orthogonalEdgeStyle;rounded=0;orthogonalLoop=1;jettySize=auto;html=1;exitX=0.5;exitY=1;exitDx=0;exitDy=0;entryX=0.25;entryY=0;entryDx=0;entryDy=0;endArrow=none;endFill=0;" edge="1" parent="1" source="HoNlZnx-3GMSGM9q2nx6-18" target="HoNlZnx-3GMSGM9q2nx6-2">
          <mxGeometry relative="1" as="geometry" />
        </mxCell>
        <mxCell id="HoNlZnx-3GMSGM9q2nx6-18" value="id" style="ellipse;whiteSpace=wrap;html=1;align=center;fontStyle=4;" vertex="1" parent="1">
          <mxGeometry x="390" y="40" width="60" height="40" as="geometry" />
        </mxCell>
        <mxCell id="HoNlZnx-3GMSGM9q2nx6-23" style="edgeStyle=orthogonalEdgeStyle;rounded=0;orthogonalLoop=1;jettySize=auto;html=1;exitX=0.5;exitY=1;exitDx=0;exitDy=0;entryX=0.75;entryY=0;entryDx=0;entryDy=0;endArrow=none;endFill=0;" edge="1" parent="1" source="HoNlZnx-3GMSGM9q2nx6-19" target="HoNlZnx-3GMSGM9q2nx6-2">
          <mxGeometry relative="1" as="geometry" />
        </mxCell>
        <mxCell id="HoNlZnx-3GMSGM9q2nx6-19" value="nombre" style="ellipse;whiteSpace=wrap;html=1;align=center;" vertex="1" parent="1">
          <mxGeometry x="470" y="40" width="80" height="40" as="geometry" />
        </mxCell>
        <mxCell id="HoNlZnx-3GMSGM9q2nx6-25" style="edgeStyle=orthogonalEdgeStyle;rounded=0;orthogonalLoop=1;jettySize=auto;html=1;exitX=0;exitY=0.5;exitDx=0;exitDy=0;entryX=1;entryY=0.5;entryDx=0;entryDy=0;endArrow=none;endFill=0;" edge="1" parent="1" source="HoNlZnx-3GMSGM9q2nx6-21" target="HoNlZnx-3GMSGM9q2nx6-2">
          <mxGeometry relative="1" as="geometry" />
        </mxCell>
        <mxCell id="HoNlZnx-3GMSGM9q2nx6-21" value="telefono" style="ellipse;shape=doubleEllipse;margin=3;whiteSpace=wrap;html=1;align=center;" vertex="1" parent="1">
          <mxGeometry x="550" y="120" width="100" height="40" as="geometry" />
        </mxCell>
        <mxCell id="HoNlZnx-3GMSGM9q2nx6-29" style="edgeStyle=orthogonalEdgeStyle;rounded=0;orthogonalLoop=1;jettySize=auto;html=1;exitX=1;exitY=0.5;exitDx=0;exitDy=0;entryX=0;entryY=0.25;entryDx=0;entryDy=0;endArrow=none;endFill=0;" edge="1" parent="1" source="HoNlZnx-3GMSGM9q2nx6-26" target="HoNlZnx-3GMSGM9q2nx6-3">
          <mxGeometry relative="1" as="geometry" />
        </mxCell>
        <mxCell id="HoNlZnx-3GMSGM9q2nx6-26" value="id" style="ellipse;whiteSpace=wrap;html=1;align=center;fontStyle=4;" vertex="1" parent="1">
          <mxGeometry x="10" y="370" width="60" height="40" as="geometry" />
        </mxCell>
        <mxCell id="HoNlZnx-3GMSGM9q2nx6-27" value="nombre" style="ellipse;whiteSpace=wrap;html=1;align=center;" vertex="1" parent="1">
          <mxGeometry y="440" width="80" height="40" as="geometry" />
        </mxCell>
        <mxCell id="HoNlZnx-3GMSGM9q2nx6-31" style="edgeStyle=orthogonalEdgeStyle;rounded=0;orthogonalLoop=1;jettySize=auto;html=1;exitX=0.5;exitY=0;exitDx=0;exitDy=0;entryX=0.5;entryY=1;entryDx=0;entryDy=0;endArrow=none;endFill=0;" edge="1" parent="1" source="HoNlZnx-3GMSGM9q2nx6-28" target="HoNlZnx-3GMSGM9q2nx6-3">
          <mxGeometry relative="1" as="geometry" />
        </mxCell>
        <mxCell id="HoNlZnx-3GMSGM9q2nx6-28" value="telefono" style="ellipse;shape=doubleEllipse;margin=3;whiteSpace=wrap;html=1;align=center;" vertex="1" parent="1">
          <mxGeometry x="100" y="470" width="100" height="40" as="geometry" />
        </mxCell>
        <mxCell id="HoNlZnx-3GMSGM9q2nx6-32" style="edgeStyle=orthogonalEdgeStyle;rounded=0;orthogonalLoop=1;jettySize=auto;html=1;exitX=1;exitY=0.5;exitDx=0;exitDy=0;entryX=0.15;entryY=1.025;entryDx=0;entryDy=0;entryPerimeter=0;endArrow=none;endFill=0;" edge="1" parent="1" source="HoNlZnx-3GMSGM9q2nx6-27" target="HoNlZnx-3GMSGM9q2nx6-3">
          <mxGeometry relative="1" as="geometry" />
        </mxCell>
        <mxCell id="HoNlZnx-3GMSGM9q2nx6-33" value="1" style="text;html=1;align=center;verticalAlign=middle;resizable=0;points=[];autosize=1;strokeColor=none;fillColor=none;" vertex="1" parent="1">
          <mxGeometry x="384" y="110" width="30" height="30" as="geometry" />
        </mxCell>
        <mxCell id="HoNlZnx-3GMSGM9q2nx6-34" value="N" style="text;html=1;align=center;verticalAlign=middle;resizable=0;points=[];autosize=1;strokeColor=none;fillColor=none;" vertex="1" parent="1">
          <mxGeometry x="200" y="110" width="30" height="30" as="geometry" />
        </mxCell>
        <mxCell id="HoNlZnx-3GMSGM9q2nx6-35" value="N" style="text;html=1;align=center;verticalAlign=middle;resizable=0;points=[];autosize=1;strokeColor=none;fillColor=none;" vertex="1" parent="1">
          <mxGeometry x="150" y="350" width="30" height="30" as="geometry" />
        </mxCell>
        <mxCell id="HoNlZnx-3GMSGM9q2nx6-36" value="N" style="text;html=1;align=center;verticalAlign=middle;resizable=0;points=[];autosize=1;strokeColor=none;fillColor=none;" vertex="1" parent="1">
          <mxGeometry x="145" y="160" width="30" height="30" as="geometry" />
        </mxCell>
      </root>
    </mxGraphModel>
  </diagram>
</mxfile>
